<svg xmlns="http://www.w3.org/2000/svg" width="135" height="130" viewBox="0 0 135 130">
    <defs>
        <linearGradient id="a" x1="50%" x2="50%" y1="100%" y2="0%">
            <stop offset="0%" stop-opacity=".12"/>
            <stop offset="55.135%" stop-opacity=".09"/>
            <stop offset="100%" stop-opacity=".02"/>
        </linearGradient>
    </defs>
    <g fill="none" fill-rule="nonzero">
        <path fill="#0854B3" d="M22.497 74.13L0 48.457 67.31 0l67.311 48.456-22.857 25.675z"/>
        <path fill="#06438F" d="M22.497 74.13L0 48.457 67.31 0l67.311 48.456-22.857 25.675z"/>
        <path fill="#0854B3" d="M0 51.711h131.381v57.677H0z"/>
        <path fill="url(#a)" d="M0 51.711h131.381v57.677H0z"/>
        <path fill="#0854B3" d="M134.621 130H0V48.456l67.31 40.862 67.311-40.862z"/>
        <path fill="#00D68F" d="M129.797 17.897l-7.605-7.695A4.017 4.017 0 0 0 119.328 9a4.017 4.017 0 0 0-2.863 1.202L68.727 57.808 48.54 37.338a3.987 3.987 0 0 0-2.84-1.191c-1.068 0-2.09.429-2.842 1.192l-7.68 7.634a4.13 4.13 0 0 0 0 5.775l30.648 31.068a4.072 4.072 0 0 0 5.742 0l58.23-58.144A4.063 4.063 0 0 0 131 20.784a4.063 4.063 0 0 0-1.203-2.887z"/>
    </g>
</svg>
