<?xml version="1.0" encoding="UTF-8"?>
<svg width="248px" height="109px" viewBox="0 0 248 109" version="1.1" xmlns="http://www.w3.org/2000/svg" xmlns:xlink="http://www.w3.org/1999/xlink">
    <!-- Generator: Sketch 55.2 (78181) - https://sketchapp.com -->
    <title>New password </title>
    <desc>Created with Sketch.</desc>
    <g id="Page-3" stroke="none" stroke-width="1" fill="none" fill-rule="evenodd">
        <g id="New-password-set--Copy" transform="translate(-530.000000, -199.000000)">
            <g id="New-password-" transform="translate(529.000000, 199.000000)">
                <g id="Group-3">
                    <g id="Group-2" transform="translate(0.800000, 49.893258)">
                        <path d="M0.2,0 L144,0 C147.97645,1.57716412e-16 151.2,3.22354961 151.2,7.19999957 L151.2,31.2719105 C151.2,35.2483605 147.97645,38.4719101 144,38.4719101 L0.2,38.4719101 L0.2,0 Z" id="Rectangle" fill="#F4F6F8" fill-rule="nonzero" transform="translate(75.700000, 19.235955) scale(-1, 1) translate(-75.700000, -19.235955) "></path>
                        <ellipse id="Oval" fill="#454F5B" cx="19.4" cy="19.2359551" rx="7.2" ry="7.21348315"></ellipse>
                        <ellipse id="Oval-Copy-6" fill="#454F5B" cx="57.8" cy="19.2359551" rx="7.2" ry="7.21348315"></ellipse>
                        <ellipse id="Oval-Copy-8" fill="#454F5B" cx="96.2" cy="19.2359551" rx="7.2" ry="7.21348315"></ellipse>
                        <ellipse id="Oval-Copy-3" fill="#454F5B" cx="38.6" cy="19.2359551" rx="7.2" ry="7.21348315"></ellipse>
                        <ellipse id="Oval-Copy-7" fill="#454F5B" cx="77" cy="19.2359551" rx="7.2" ry="7.21348315"></ellipse>
                        <ellipse id="Oval-Copy-9" fill="#454F5B" cx="115.4" cy="19.2359551" rx="7.2" ry="7.21348315"></ellipse>
                    </g>
                    <g id="undraw_security_o890-(1)" transform="translate(132.000000, 0.000000)" fill-rule="nonzero">
                        <path d="M70.9632,37.6511736 L64.8716488,37.6511736 L64.8716488,25.8231504 C64.8716488,12.4761789 54.2260449,1.3806663 40.8740839,1.17843946 C34.3711685,1.11014264 28.1099941,3.63944345 23.4803608,8.20491008 C18.8507275,12.7703767 16.2356731,18.9942802 16.2156644,25.4950935 L16.2156644,37.6511736 L10.1376,37.6511736 C4.54593029,37.6684445 0.017277408,42.1954051 1.8189894e-12,47.7849852 L1.8189894e-12,96.4182933 C0.017277408,102.007873 4.54593029,106.534834 10.1376,106.552105 L70.9632,106.552105 C76.5541353,106.534822 81.0814944,102.007146 81.0963044,96.4182933 L81.0963044,47.7849852 C81.0814944,42.1961321 76.5541353,37.668457 70.9632,37.6511736 Z M44.1019317,69.2659696 L44.1019317,86.6844414 C44.1141276,88.5983584 42.6397999,90.1939673 40.7302244,90.3335124 C39.7594116,90.3789562 38.812294,90.0252248 38.1091275,89.3545799 C37.4059609,88.683935 37.0080244,87.7548213 37.0078595,86.7833079 L37.0078595,69.2569817 C33.6212123,67.6059971 31.8226409,63.836929 32.6701597,60.1669415 C33.5176785,56.4969541 36.7869826,53.8973477 40.5548956,53.8973477 C44.3228086,53.8973477 47.5921128,56.4969541 48.4396315,60.1669415 C49.2871503,63.836929 47.4885789,67.6059971 44.1019317,69.2569817 L44.1019317,69.2659696 Z M57.7865678,37.6511736 L23.3097366,37.6511736 L23.3097366,25.4950935 C23.3097366,15.9818601 31.024619,8.26986066 40.5414088,8.26986066 C50.0581985,8.26986066 57.773081,15.9818601 57.773081,25.4950935 L57.7865678,37.6511736 Z" id="Shape" fill="#000000" opacity="0.1"></path>
                        <path d="M70.9632,36.7523876 L64.8716488,36.7523876 L64.8716488,24.9243644 C64.8716488,11.577393 54.2260449,0.481880346 40.8740839,0.279653505 C34.3711685,0.211356687 28.1099941,2.7406575 23.4803608,7.30612412 C18.8507275,11.8715907 16.2356731,18.0954942 16.2156644,24.5963076 L16.2156644,36.7523876 L10.1376,36.7523876 C4.54593029,36.7696586 0.017277408,41.2966191 2.27373675e-12,46.8861993 L2.27373675e-12,95.5195074 C0.017277408,101.109088 4.54593029,105.636048 10.1376,105.653319 L70.9632,105.653319 C76.5541353,105.636036 81.0814944,101.108361 81.0963044,95.5195074 L81.0963044,46.8861993 C81.0814944,41.2973461 76.5541353,36.769671 70.9632,36.7523876 L70.9632,36.7523876 Z M44.1019317,68.3671836 L44.1019317,85.7856555 C44.1141276,87.6995725 42.6397999,89.2951814 40.7302244,89.4347265 C39.7594116,89.4801702 38.812294,89.1264388 38.1091275,88.4557939 C37.4059609,87.785149 37.0080244,86.8560353 37.0078595,85.8845219 L37.0078595,68.3581958 C33.6212123,66.7072111 31.8226409,62.938143 32.6701597,59.2681556 C33.5176785,55.5981681 36.7869826,52.9985618 40.5548956,52.9985618 C44.3228086,52.9985618 47.5921128,55.5981681 48.4396315,59.2681556 C49.2871503,62.938143 47.4885789,66.7072111 44.1019317,68.3581958 L44.1019317,68.3671836 Z M57.7865678,36.7523876 L23.3097366,36.7523876 L23.3097366,24.5963076 C23.3097366,15.0830741 31.024619,7.3710747 40.5414088,7.3710747 C50.0581985,7.3710747 57.773081,15.0830741 57.773081,24.5963076 L57.7865678,36.7523876 Z" id="Shape" fill="#0854B3"></path>
                    </g>
                </g>
                <path d="M248.280969,70.2900258 L243.733251,65.7145945 C243.280829,65.2573077 242.664332,65 242.021116,65 C241.377899,65 240.761402,65.2573077 240.30898,65.7145945 L211.764407,94.0211428 L199.694079,81.8499563 C199.245088,81.3965168 198.633495,81.1414061 197.995425,81.1414061 C197.357356,81.1414061 196.745762,81.3965168 196.296772,81.8499563 L191.704115,86.3894313 C190.765295,87.3414672 190.765295,88.8712162 191.704115,89.8232521 L210.029803,108.295769 C210.981683,109.234744 212.511181,109.234744 213.463061,108.295769 L248.280969,73.7238465 C248.740962,73.2710108 249,72.6524769 249,72.0069361 C249,71.3613953 248.740962,70.7428614 248.280969,70.2900258 L248.280969,70.2900258 Z" id="Path" fill="#00D68F" fill-rule="nonzero"></path>
            </g>
        </g>
    </g>
</svg>