<?xml version="1.0" encoding="UTF-8"?>
<svg width="101px" height="24px" viewBox="0 0 101 24" version="1.1" xmlns="http://www.w3.org/2000/svg" xmlns:xlink="http://www.w3.org/1999/xlink">
    <!-- Generator: Sketch 54 (76480) - https://sketchapp.com -->
    <title>Dark Logo</title>
    <desc>Created with Sketch.</desc>
    <g id="Page-1" stroke="none" stroke-width="1" fill="none" fill-rule="evenodd">
        <g id="ðŸ–¥ï¸-Sign-up-email" transform="translate(-124.000000, -43.000000)" fill-rule="nonzero">
            <g id="Dark-Logo" transform="translate(124.000000, 43.000000)">
                <g id="dark-copy">
                    <g id="XMLID_6790_" transform="translate(21.014533, 0.000000)" fill="#2E2F31">
                        <path d="M12.347128,4.79127273 L12.347128,17.4109091 C12.347128,17.7512727 12.2424913,18.0305455 12.033218,18.2487273 C11.8239446,18.4669091 11.5361938,18.5716364 11.152526,18.5716364 C10.7950173,18.5716364 10.5072664,18.4669091 10.3067128,18.2574545 C10.0974394,18.048 9.99280277,17.7774545 9.99280277,17.4370909 L9.99280277,15.9447273 C9.53937716,16.8174545 8.89411765,17.4807273 8.06574394,17.9432727 C7.23737024,18.3970909 6.31307958,18.6327273 5.28415225,18.6327273 C3.55764706,18.6327273 2.24968858,18.1527273 1.37771626,17.184 C0.505743944,16.2152727 0.0610380612,14.7927273 0.0610380612,12.8989091 L0.0610380612,4.45963636 C0.0610380612,3.97963636 0.453425604,3.59563636 0.924290656,3.59563636 L2.47640138,3.59563636 L2.47640138,12.8465455 C2.47640138,14.1381818 2.73799308,15.0894545 3.25245675,15.7003636 C3.76692041,16.3025455 4.58657439,16.608 5.70269896,16.608 C6.97577855,16.608 7.99598616,16.1978182 8.77204152,15.3687273 C9.54809688,14.5396364 9.9317647,13.4574545 9.9317647,12.1047273 L9.9317647,4.79127273 C9.9317647,4.43345455 10.0451211,4.14545455 10.2631142,3.92727273 C10.4811073,3.70909091 10.7775779,3.59563636 11.1612457,3.59563636 C11.5361938,3.59563636 11.8326644,3.70909091 12.0419377,3.92727273 C12.2424913,4.14545455 12.347128,4.43345455 12.347128,4.79127273 Z" id="XMLID_6802_"></path>
                        <path d="M25.4354325,4.49454545 C26.4120415,5.13163636 27.1619377,6.02181818 27.7025606,7.16509091 C28.2431834,8.30836364 28.5047751,9.63490909 28.5047751,11.1447273 C28.5047751,12.6545455 28.2344637,13.9723636 27.7025606,15.0981818 C27.1619377,16.224 26.4120415,17.0967273 25.452872,17.7076364 C24.4849827,18.3272727 23.3601384,18.6327273 22.0696194,18.6327273 C20.9360554,18.6327273 19.9507266,18.3883636 19.1049135,17.8909091 C18.2591003,17.3934545 17.6225606,16.6865455 17.1778547,15.7701818 L17.1778547,22.7869091 C17.1778547,23.1447273 17.073218,23.4327273 16.8639446,23.6334545 C16.6546713,23.8429091 16.3582007,23.9476364 15.9832526,23.9476364 C15.6083045,23.9476364 15.3031142,23.8341818 15.0851211,23.616 C14.867128,23.3978182 14.7537716,23.1185455 14.7537716,22.7781818 L14.7537716,4.79127273 C14.7537716,4.43345455 14.8584083,4.14545455 15.0851211,3.92727273 C15.3031142,3.70909091 15.5995848,3.59563636 15.9832526,3.59563636 C16.3582007,3.59563636 16.6546713,3.70909091 16.8639446,3.92727273 C17.073218,4.14545455 17.1778547,4.43345455 17.1778547,4.79127273 L17.1778547,6.40581818 C17.6138408,5.48945455 18.2591003,4.78254545 19.1049135,4.28509091 C19.9507266,3.78763636 20.9360554,3.54327273 22.0696194,3.54327273 C23.342699,3.53454545 24.4675433,3.85745455 25.4354325,4.49454545 Z M24.8686505,15.2029091 C25.6447059,14.2516364 26.0283737,12.8989091 26.0283737,11.1447273 C26.0283737,9.39054545 25.6447059,8.02909091 24.8686505,7.04290909 C24.0925952,6.05672727 23.0026298,5.568 21.5900346,5.568 C20.1774394,5.568 19.087474,6.048 18.3288581,6.99927273 C17.5615225,7.95054545 17.1778547,9.32072727 17.1778547,11.0836364 C17.1778547,12.8552727 17.5615225,14.2254545 18.3288581,15.1854545 C19.0961938,16.1541818 20.1861592,16.6341818 21.5900346,16.6341818 C23.0026298,16.6341818 24.0925952,16.1541818 24.8686505,15.2029091 Z" id="XMLID_6799_"></path>
                        <path d="M42.1947405,3.62181818 C42.4912111,3.62181818 42.7615225,3.71781818 42.996955,3.91854545 C43.2323875,4.11927273 43.3544637,4.36363636 43.3544637,4.66036364 C43.3544637,4.84363636 43.3108651,5.00072727 43.2323875,5.14036364 L37.4163322,17.6727273 C37.2942561,17.9345455 37.1198616,18.1352727 36.8757093,18.2836364 C36.6402768,18.432 36.3786851,18.5105455 36.099654,18.5105455 C35.8380623,18.5105455 35.59391,18.432 35.3584775,18.2836364 C35.123045,18.1352727 34.9312111,17.9345455 34.7916955,17.6727273 L29.0192388,5.14909091 C28.9407612,5.00945455 28.8971626,4.86109091 28.8971626,4.704 C28.8971626,4.40727273 29.0279585,4.14545455 29.2982699,3.92727273 C29.5685813,3.70909091 29.8563322,3.59563636 30.1789619,3.59563636 C30.3795156,3.59563636 30.5713495,3.65672727 30.7631834,3.77890909 C30.9550173,3.90109091 31.0945329,4.06690909 31.1991696,4.28509091 L36.1781315,15.4734545 L41.1570934,4.34618182 C41.3663668,3.86618182 41.7151557,3.62181818 42.1947405,3.62181818 Z" id="XMLID_6797_"></path>
                        <path d="M56.7130796,15.3250909 C56.8700346,15.5083636 56.9485121,15.7352727 56.9485121,16.0145455 C56.9485121,16.512 56.5997232,16.9658182 55.9021453,17.3847273 C55.187128,17.8036364 54.4285121,18.1178182 53.6350173,18.3272727 C52.8415225,18.5367273 52.0654671,18.6414545 51.3068512,18.6414545 C49.0571626,18.6414545 47.2870588,17.9781818 45.9878201,16.6429091 C44.6885813,15.3076364 44.0346021,13.4661818 44.0346021,11.1185455 C44.0346021,9.62618182 44.3223529,8.30836364 44.8978547,7.16509091 C45.4733564,6.02181818 46.2842907,5.13163636 47.3306574,4.49454545 C48.3770242,3.85745455 49.5629066,3.54327273 50.8970242,3.54327273 C52.7892042,3.54327273 54.2889965,4.16290909 55.3964014,5.39345455 C56.512526,6.624 57.0618685,8.29963636 57.0618685,10.4029091 C57.0618685,10.8043636 56.983391,11.0923636 56.826436,11.2669091 C56.669481,11.4501818 56.4078893,11.5374545 56.0503806,11.5374545 L46.4586851,11.5374545 C46.6417993,14.9585455 48.2549481,16.6690909 51.3155709,16.6690909 C52.0916263,16.6690909 52.7543253,16.5643636 53.3123875,16.3549091 C53.8704498,16.1454545 54.463391,15.8661818 55.0999308,15.5083636 C55.6143945,15.2116364 55.9631834,15.0632727 56.1462976,15.0632727 C56.3642907,15.0545455 56.5561246,15.1418182 56.7130796,15.3250909 Z M47.8712803,6.60654545 C47.1039446,7.40072727 46.650519,8.52654545 46.5110035,9.97527273 L54.9516955,9.97527273 C54.9080969,8.50036364 54.5418685,7.37454545 53.8442907,6.58909091 C53.1467128,5.80363636 52.1788235,5.41090909 50.9231834,5.41090909 C49.6588235,5.41963636 48.6386159,5.81236364 47.8712803,6.60654545 Z" id="XMLID_6794_"></path>
                        <path d="M61.9797924,18.3098182 C61.1514187,18.0916364 60.4276817,17.7861818 59.7911419,17.3847273 C59.4336332,17.1490909 59.1807612,16.9221818 59.032526,16.7127273 C58.8842907,16.5032727 58.8058131,16.2501818 58.8058131,15.9534545 C58.8058131,15.6916364 58.8842907,15.4821818 59.032526,15.3076364 C59.1807612,15.1418182 59.3725952,15.0545455 59.6167474,15.0545455 C59.8521799,15.0545455 60.2009689,15.2029091 60.6631142,15.4996364 C61.2560554,15.8574545 61.8489965,16.1454545 62.433218,16.3461818 C63.0174394,16.5556364 63.7498962,16.6603636 64.6218685,16.6603636 C65.6943945,16.6603636 66.5314879,16.4683636 67.1244291,16.0930909 C67.7173702,15.7178182 68.0225606,15.168 68.0225606,14.4523636 C68.0225606,14.016 67.9092042,13.6581818 67.6912111,13.3963636 C67.473218,13.1258182 67.0982699,12.8901818 66.5576471,12.6807273 C66.0170242,12.4712727 65.2322491,12.2618182 64.2033218,12.0349091 C62.4506574,11.6596364 61.203737,11.1534545 60.4451211,10.5163636 C59.6865052,9.87927273 59.3115571,9.01527273 59.3115571,7.92436364 C59.3115571,7.06909091 59.5469896,6.30981818 60.0265744,5.65527273 C60.5061592,5.00072727 61.1601384,4.48581818 62.0059516,4.10181818 C62.8517647,3.72654545 63.8109343,3.53454545 64.8834602,3.53454545 C65.6595156,3.53454545 66.4094118,3.63927273 67.1331488,3.84872727 C67.8568858,4.05818182 68.5021453,4.35490909 69.0602076,4.73018182 C69.7316263,5.21018182 70.0716955,5.70763636 70.0716955,6.22254545 C70.0716955,6.48436364 69.993218,6.70254545 69.836263,6.87709091 C69.679308,7.06036364 69.487474,7.14763636 69.269481,7.14763636 C69.0340484,7.14763636 68.6765398,6.98181818 68.196955,6.64145455 C67.6388927,6.28363636 67.1157093,6.00436364 66.6186851,5.80363636 C66.1216609,5.60290909 65.5025606,5.50690909 64.7701038,5.50690909 C63.8370934,5.50690909 63.0871972,5.71636364 62.5204152,6.13527273 C61.9536332,6.55418182 61.6746021,7.11272727 61.6746021,7.80218182 C61.6746021,8.23854545 61.7792388,8.59636364 61.9885121,8.85818182 C62.1977855,9.12872727 62.5465744,9.36436364 63.0348789,9.57381818 C63.5231834,9.78327273 64.2207612,9.984 65.1363322,10.1847273 C66.4878893,10.4814545 67.5342561,10.8130909 68.2841522,11.1709091 C69.0253287,11.5287273 69.5572318,11.9650909 69.8798616,12.48 C70.1937716,12.9949091 70.3594464,13.6581818 70.3594464,14.4523636 C70.3594464,15.7090909 69.836263,16.7127273 68.7811765,17.4807273 C67.72609,18.2487273 66.339654,18.6327273 64.6044291,18.6327273 C63.6714187,18.6327273 62.7994464,18.528 61.9797924,18.3098182 Z" id="XMLID_6792_"></path>
                        <path d="M78.7216609,16.6690909 L77.9194464,16.608 C77.0213149,16.5469091 76.3586159,16.2763636 75.9051903,15.7876364 C75.4604844,15.2989091 75.2337716,14.5134545 75.2337716,13.4138182 L75.2337716,5.80363636 L78.5385467,5.80363636 C78.8611765,5.80363636 79.1053287,5.71636364 79.2971626,5.55054546 C79.4889965,5.38472727 79.5761938,5.15781818 79.5761938,4.87854546 C79.5761938,4.58181818 79.4802768,4.33745455 79.2971626,4.16290909 C79.1053287,3.98836364 78.8524567,3.89236364 78.5385467,3.89236364 L75.2337716,3.89236364 L75.2337716,0.0174545461 L73.6816609,0.0174545461 C73.2020761,0.0174545461 72.8184083,0.401454546 72.8184083,0.881454546 L72.8184083,3.89236364 L71.5802076,3.89236364 L69.740346,3.89236364 C69.897301,3.97963636 70.0455363,4.06690909 70.1850519,4.17163636 C70.9262284,4.69527273 71.3447751,5.23636364 71.3534948,5.80363636 L72.8184083,5.80363636 L72.8184083,13.2916364 C72.8184083,14.9847273 73.1933564,16.2501818 73.9519723,17.0792727 C74.7105882,17.9170909 75.8790311,18.3883636 77.4660208,18.5105455 L78.2682353,18.5716364 C78.7652595,18.6065455 79.1402076,18.5454545 79.3843599,18.3796364 C79.6372318,18.2138182 79.759308,17.9607273 79.759308,17.6203636 C79.759308,17.0443636 79.410519,16.7214545 78.7216609,16.6690909 Z" id="XMLID_6791_"></path>
                    </g>
                    <g id="XMLID_1133_" transform="translate(0.000000, 2.618182)" fill="#0854B3">
                        <path d="M3.75820069,0.0349090909 L8.41453287,0.0349090909 L8.47557093,0.0349090909 L16.7854671,0.0349090909 L16.7854671,5.98690909 L16.7854671,13.4923636 C16.7854671,15.3338182 15.2943945,16.8174545 13.4632526,16.8174545 L10.8560554,16.8174545 L10.8560554,5.98690909 L8.48429066,5.98690909 L8.42325259,5.98690909 L0.0261591691,5.98690909 L0.0261591691,3.77018182 C0.0261591691,1.71054545 1.70034602,0.0349090909 3.75820069,0.0349090909 Z" id="XMLID_1137_"></path>
                        <polygon id="XMLID_1136_" points="0.0261591691 8.97163636 7.86519031 8.97163636 7.86519031 16.8174545 0.0261591691 16.8174545"></polygon>
                    </g>
                </g>
            </g>
        </g>
    </g>
</svg>