<svg xmlns="http://www.w3.org/2000/svg" width="101" height="24" viewBox="0 0 101 24">
    <g fill="#FFF" fill-rule="nonzero">
        <path d="M33.362 4.791v12.62c0 .34-.105.62-.314.838-.21.218-.497.323-.88.323-.358 0-.646-.105-.847-.315-.209-.209-.314-.48-.314-.82v-1.492a4.736 4.736 0 0 1-1.927 1.998c-.828.454-1.752.69-2.781.69-1.727 0-3.035-.48-3.907-1.449-.872-.969-1.316-2.391-1.316-4.285v-8.44c0-.48.392-.863.863-.863h1.552v9.25c0 1.292.262 2.243.776 2.854.514.603 1.334.908 2.45.908 1.273 0 2.294-.41 3.07-1.24.776-.828 1.16-1.91 1.16-3.263V4.79c0-.358.113-.646.33-.864.219-.218.515-.331.899-.331.375 0 .671.113.88.331.201.218.306.506.306.864zM46.45 4.495c.977.637 1.726 1.527 2.267 2.67.54 1.143.802 2.47.802 3.98 0 1.51-.27 2.827-.802 3.953-.54 1.126-1.29 1.999-2.25 2.61-.967.62-2.092.925-3.383.925-1.133 0-2.119-.245-2.965-.742-.845-.498-1.482-1.204-1.927-2.12v7.016c0 .358-.104.646-.314.846-.209.21-.505.315-.88.315s-.68-.114-.898-.332a1.138 1.138 0 0 1-.332-.838V4.791c0-.358.105-.646.332-.864.218-.218.514-.331.898-.331.375 0 .671.113.88.331.21.218.314.506.314.864v1.615a4.788 4.788 0 0 1 1.927-2.12c.846-.498 1.832-.743 2.965-.743 1.273-.008 2.398.314 3.366.952zm-.567 10.708c.776-.951 1.16-2.304 1.16-4.058s-.384-3.116-1.16-4.102c-.776-.986-1.866-1.475-3.278-1.475-1.413 0-2.503.48-3.262 1.431-.767.952-1.15 2.322-1.15 4.085 0 1.771.383 3.141 1.15 4.101.768.97 1.858 1.45 3.262 1.45 1.412 0 2.502-.48 3.278-1.432zM63.21 3.622c.296 0 .566.096.801.297.236.2.358.445.358.741 0 .184-.044.34-.122.48L58.43 17.673a1.363 1.363 0 0 1-.54.61 1.438 1.438 0 0 1-.777.228c-.261 0-.506-.079-.741-.227a1.597 1.597 0 0 1-.567-.611L50.034 5.149a.9.9 0 0 1-.122-.445c0-.297.13-.559.4-.777.271-.218.559-.331.881-.331.201 0 .393.06.585.183.192.122.331.288.436.506l4.979 11.188 4.979-11.127c.209-.48.558-.724 1.037-.724zM77.728 15.325c.157.183.235.41.235.69 0 .497-.349.95-1.046 1.37a9.031 9.031 0 0 1-2.267.942c-.794.21-1.57.314-2.329.314-2.25 0-4.02-.663-5.319-1.998-1.299-1.335-1.953-3.177-1.953-5.524 0-1.493.288-2.81.863-3.954.576-1.143 1.387-2.033 2.433-2.67 1.047-.638 2.232-.952 3.567-.952 1.892 0 3.392.62 4.499 1.85 1.116 1.231 1.665 2.907 1.665 5.01 0 .401-.078.69-.235.864-.157.183-.419.27-.776.27h-9.592c.183 3.422 1.796 5.132 4.857 5.132.776 0 1.439-.105 1.997-.314a12.96 12.96 0 0 0 1.787-.847c.515-.296.864-.445 1.047-.445a.687.687 0 0 1 .567.262zm-8.842-8.718c-.768.794-1.22 1.92-1.36 3.368h8.44c-.043-1.475-.41-2.6-1.107-3.386-.698-.785-1.666-1.178-2.921-1.178-1.265.009-2.285.401-3.052 1.196zM82.994 18.31c-.828-.218-1.552-.524-2.188-.925-.358-.236-.61-.463-.759-.672a1.283 1.283 0 0 1-.227-.76c0-.261.079-.47.227-.645a.745.745 0 0 1 .584-.253c.236 0 .585.148 1.047.445a9.32 9.32 0 0 0 1.77.846c.584.21 1.316.314 2.188.314 1.073 0 1.91-.192 2.503-.567.593-.375.898-.925.898-1.64 0-.437-.113-.795-.331-1.057-.218-.27-.593-.506-1.134-.715-.54-.21-1.325-.42-2.354-.646-1.753-.375-3-.882-3.758-1.519-.759-.637-1.134-1.5-1.134-2.592 0-.855.236-1.614.715-2.269.48-.654 1.134-1.17 1.98-1.553.845-.375 1.804-.567 2.877-.567.776 0 1.526.104 2.25.314.723.21 1.369.506 1.927.881.671.48 1.011.978 1.011 1.493 0 .261-.078.48-.235.654a.721.721 0 0 1-.567.27c-.235 0-.593-.165-1.073-.506a9.657 9.657 0 0 0-1.578-.837c-.497-.201-1.116-.297-1.848-.297-.933 0-1.683.21-2.25.628-.567.42-.846.978-.846 1.667 0 .437.105.794.314 1.056.21.27.558.506 1.046.716.489.21 1.186.41 2.102.61 1.351.297 2.398.63 3.148.987.74.358 1.273.794 1.595 1.309.314.515.48 1.178.48 1.972 0 1.257-.523 2.26-1.578 3.029-1.055.768-2.442 1.152-4.177 1.152-.933 0-1.805-.105-2.625-.323zM99.736 16.67l-.802-.062c-.898-.061-1.56-.332-2.014-.82-.445-.49-.672-1.275-.672-2.374v-7.61h3.305c.323 0 .567-.088.759-.253.192-.166.279-.393.279-.672 0-.297-.096-.542-.28-.716-.191-.175-.444-.27-.758-.27h-3.305V.016h-1.552a.86.86 0 0 0-.863.864v3.011H90.755c.157.088.305.175.445.28.74.523 1.16 1.064 1.168 1.632h1.465v7.488c0 1.693.375 2.958 1.134 3.787.758.838 1.927 1.31 3.514 1.432l.802.06c.497.036.872-.026 1.116-.191.253-.166.375-.42.375-.76 0-.576-.349-.899-1.038-.95z"/>
        <g>
            <path d="M3.758 2.653H16.785v13.458a3.323 3.323 0 0 1-3.322 3.325h-2.607V8.606H.026V6.387a3.738 3.738 0 0 1 3.732-3.735z"/>
            <path d="M.026 11.59h7.84v7.846H.025z"/>
        </g>
    </g>
</svg>
